/* XPM */
static char *_a8f8b9d14524eeba9e929b130209ccc6djeJ513ljDHF8dx[] = {
/* columns rows colors chars-per-pixel */
"32 32 3 1 ",
"  c None",
". c #181818",
"X c #EFF4EF",
/* pixels */
"                                ",
"                                ",
"                                ",
"                                ",
"            XXXXXXXXXX          ",
"            XXXXXXXXXX          ",
"          XX..........XX        ",
"          XX..........XX        ",
"        XX..XX..XXXXXX..XX      ",
"        XX..XX..XXXXXX..XX      ",
"      XX..XX..XXXXXX..XX..XX    ",
"      XX..XX..XXXXXX..XX..XX    ",
"    XX..XX..XXXXXXXXXX..XX..XX  ",
"    XX..XX..XXXXXXXXXX..XX..XX  ",
"    XX..XX..XXXX....XX..XX..XX  ",
"    XX..XX..XXXX....XX..XX..XX  ",
"    XX..XX..XXXX..XXXX..XX..XX  ",
"    XX..XX..XXXX..XXXX..XX..XX  ",
"    XX......XXXX....XX..XX..XX  ",
"    XX......XXXX....XX..XX..XX  ",
"    XX..XX..XXXXXXXXXX..XX..XX  ",
"    XX..XX..XXXXXXXXXX..XX..XX  ",
"    XX........XXXXXX..XX..XX    ",
"    XX........XXXXXX..XX..XX    ",
"      XX....XX..XXXXXX..XX      ",
"      XX....XX..XXXXXX..XX      ",
"        XX............XX        ",
"        XX............XX        ",
"          XXXXXXXXXXXX          ",
"          XXXXXXXXXXXX          ",
"                                ",
"                                "
};
