/* XPM */
static char *result[] = {
/* columns rows colors chars-per-pixel */
"32 32 3 1 ",
"  c #111111",
". c #EFF5EF",
"X c None",
/* pixels */
"XXXXXXXXXX............XXXXXXXXXX",
"XXXXXXXXXX............XXXXXXXXXX",
"XXXXXXXX..            ..XXXXXXXX",
"XXXXXXXX..            ..XXXXXXXX",
"XXXXXX..    ..........  ..XXXXXX",
"XXXXXX..    ..........  ..XXXXXX",
"XXXX..    ....  ..  ....  ..XXXX",
"XXXX..    ....  ..  ....  ..XXXX",
"XXXX..    ....    ......  ..XXXX",
"XXXX..    ....    ......  ..XXXX",
"XXXX..    ....    ......  ..XXXX",
"XXXX..    ....    ......  ..XXXX",
"XXXX..    ....  ..  ....  ..XXXX",
"XXXX..    ....  ..  ....  ..XXXX",
"XXXXXX..    ..........  ..XXXXXX",
"XXXXXX..    ..........  ..XXXXXX",
"XXXXXXXX..    ....    ..XXXXXXXX",
"XXXXXXXX..    ....    ..XXXXXXXX",
"XXXXXXXX..    ....  ..XXXXXXXXXX",
"XXXXXXXX..    ....  ..XXXXXXXXXX",
"XXXXXXXX..    ....    ..XXXXXXXX",
"XXXXXXXX..    ....    ..XXXXXXXX",
"XXXXXXXX..    ........  ..XXXXXX",
"XXXXXXXX..    ........  ..XXXXXX",
"XXXXXXXX..    ......  ..XXXXXXXX",
"XXXXXXXX..    ......  ..XXXXXXXX",
"XXXXXXXX..    ........  ..XXXXXX",
"XXXXXXXX..    ........  ..XXXXXX",
"XXXXXXXXXX..          ..XXXXXXXX",
"XXXXXXXXXX..          ..XXXXXXXX",
"XXXXXXXXXXXX..........XXXXXXXXXX",
"XXXXXXXXXXXX..........XXXXXXXXXX"
};
