/* XPM */
static char *_e9b9722574c4ab4ce6ca7ba52d53487gZ9yb5HgZP3ms6sC[] = {
/* columns rows colors chars-per-pixel */
"32 32 3 1 ",
"  c None",
". c #181818",
"X c #EFF4EF",
/* pixels */
"                                ",
"                                ",
"            XXXXXXXXXX          ",
"            XXXXXXXXXX          ",
"          XX..........XX        ",
"          XX..........XX        ",
"        XX..XX..XXXXXX..XX      ",
"        XX..XX..XXXXXX..XX      ",
"      XX..XX..XXXXXX..XX..XX    ",
"      XX..XX..XXXXXX..XX..XX    ",
"    XX..XX..XXXXXXXXXX..XX..XX  ",
"    XX..XX..XXXXXXXXXX..XX..XX  ",
"    XX..XX..XXXX....XX..XX..XX  ",
"    XX..XX..XXXX....XX..XX..XX  ",
"    XX..XX..XXXX..XXXX..XX..XX  ",
"    XX..XX..XXXX..XXXX..XX..XX  ",
"    XX......XXXX....XX..XX..XX  ",
"    XX......XXXX....XX..XX..XX  ",
"    XX..XX..XXXXXXXXXX..XX..XX  ",
"    XX..XX..XXXXXXXXXX..XX..XX  ",
"    XX........XXXXXX..XX..XX    ",
"    XX........XXXXXX..XX..XX    ",
"      XX....XX..XXXXXX..XX      ",
"      XX....XX..XXXXXX..XX      ",
"        XX............XX        ",
"        XX............XX        ",
"          XXXXXXXXXXXX          ",
"          XXXXXXXXXXXX          ",
"                                ",
"                                ",
"                                ",
"                                "
};
