/* XPM */
static char *dbba22f6ca394d93af00ed7c6de667726cIxv2VxPAq94DKE[] = {
/* columns rows colors chars-per-pixel */
"32 32 2 1 ",
"  c None",
". c white",
/* pixels */
"              ..........        ",
"              ..........        ",
"            ..............      ",
"            ..............      ",
"          ..................    ",
"          ..................    ",
"        ......    ....    ....  ",
"        ......    ....    ....  ",
"        ......    ....    ....  ",
"        ......    ....    ....  ",
"      ........  ........  ....  ",
"      ........  ........  ....  ",
"    ..........................  ",
"    ..........................  ",
"  ..........................    ",
"  ..........................    ",
"  ........................      ",
"  ........................      ",
"  ......................        ",
"  ......................        ",
"    ..................    ..    ",
"    ..................    ..    ",
"      ................  ......  ",
"      ................  ......  ",
"        ......................  ",
"        ......................  ",
"          ..................    ",
"          ..................    ",
"            ..............      ",
"            ..............      ",
"                                ",
"                                "
};
