/* XPM */
static char *_301f5bf8b7d4790bf3448c71862f9b6N0jRl8BqYFZyTTcg[] = {
/* columns rows colors chars-per-pixel */
"32 32 2 1 ",
"  c None",
". c white",
/* pixels */
"                                ",
"                                ",
"              ..........        ",
"              ..........        ",
"            ..............      ",
"            ..............      ",
"          ..................    ",
"          ..................    ",
"        ......    ....    ....  ",
"        ......    ....    ....  ",
"        ......    ....    ....  ",
"        ......    ....    ....  ",
"      ........  ........  ....  ",
"      ........  ........  ....  ",
"    ..........................  ",
"    ..........................  ",
"  ..........................    ",
"  ..........................    ",
"  ........................      ",
"  ........................      ",
"  ......................        ",
"  ......................        ",
"    ..................    ..    ",
"    ..................    ..    ",
"      ................  ......  ",
"      ................  ......  ",
"        ......................  ",
"        ......................  ",
"          ..................    ",
"          ..................    ",
"            ..............      ",
"            ..............      "
};
