/* XPM */
static char *result[] = {
/* columns rows colors chars-per-pixel */
"32 32 3 1 ",
"  c black",
". c white",
"X c None",
/* pixels */
"XXXXXXXXXXXXXXXXXXXXXXXXXXXXXXXX",
"XXXXXXXX................XXXXXXXX",
"XXXXXXXX................XXXXXXXX",
"XXXXXX....................XXXXXX",
"XXXXXX....................XXXXXX",
"XXXX........................XXXX",
"XXXX........................XXXX",
"XX............................XX",
"XX............................XX",
"XX............................XX",
"XX............................XX",
"XX............................XX",
"XX............................XX",
"XX............................XX",
"XX............................XX",
"XX............................XX",
"XX............................XX",
"XX............................XX",
"XX............................XX",
"XX............................XX",
"XX............................XX",
"XX....  ....XX....XX....  ....XX",
"XX.... X....XX....XX....X ....XX",
"XXXX....XXXXXXXXXXXXXXXX....XXXX",
"XXXX....XXXXXXXXXXXXXXXX....XXXX",
"XXXXXX....XX........XX....XXXXXX",
"XXXXXX....XX........XX....XXXXXX",
"XXXXXXXXXXXX..    ..XXXXXXXXXXXX",
"XXXXXXXXXXXX..X  X..XXXXXXXXXXXX",
"XXXXXXXXXX..XX....XX..XXXXXXXXXX",
"XXXXXXXXXX..XX....XX..XXXXXXXXXX",
"XXXXXXXXXXXXXXXXXXXXXXXXXXXXXXXX"
};
